<svg class="icon" style="width: 1em; height: 1em;vertical-align: middle;fill: currentColor;overflow: hidden;" viewBox="0 0 1024 1024" version="1.1" xmlns="http://www.w3.org/2000/svg" p-id="1714"><path d="M651.229 199.033c-6.769-6.77-17.845-6.77-24.615 0L74.612 751.036c-6.769 6.768-6.769 17.845 0 24.614l107.36 107.361c6.77 6.769 20.14 12.307 29.713 12.307H555.62c9.572 0 22.944-5.538 29.712-12.307l362.63-362.628c6.77-6.769 6.77-17.845 0-24.615L651.23 199.033zM551.187 817.522c-6.769 6.768-20.14 12.307-29.712 12.307H255.194c-9.573 0-22.944-5.539-29.712-12.307l-50.61-50.61c-6.769-6.769-6.769-17.845 0-24.615l202.36-202.361c6.77-6.768 17.846-6.768 24.616 0l201.155 201.156c6.769 6.768 6.769 17.845 0 24.614l-51.816 51.816z" fill="" p-id="1715"></path></svg>
