<svg class="icon" style="width: 1em; height: 1em;vertical-align: middle;fill: currentColor;overflow: hidden;" viewBox="0 0 1024 1024" version="1.1" xmlns="http://www.w3.org/2000/svg" p-id="5150"><path d="M806 911H218c-57.9 0-105-47.1-105-105V218c0-57.9 47.1-105 105-105h588c57.9 0 105 47.1 105 105v588c0 57.9-47.1 105-105 105zM218 155c-34.7 0-63 28.3-63 63v588c0 34.7 28.3 63 63 63h588c34.7 0 63-28.3 63-63V218c0-34.7-28.3-63-63-63H218zM614.3 430.6c-5.4 0-10.7-2.1-14.8-6.1-8.2-8.2-8.3-21.5-0.1-29.7l155-155.8c8.2-8.2 21.5-8.2 29.7-0.1 8.2 8.2 8.3 21.5 0.1 29.7l-155 155.8c-4.1 4.1-9.5 6.2-14.9 6.2zM239 805.9c-5.4 0-10.7-2-14.8-6.1-8.2-8.2-8.3-21.5-0.1-29.7l155-155.8c8.2-8.2 21.5-8.3 29.7-0.1 8.2 8.2 8.3 21.5 0.1 29.7l-155 155.8c-4.1 4.2-9.5 6.2-14.9 6.2zM427.2 617.2h-126c-11.6 0-21-9.4-21-21s9.4-21 21-21h126c11.6 0 21 9.4 21 21s-9.4 21-21 21zM427.2 743.2c-11.6 0-21-9.4-21-21v-126c0-11.6 9.4-21 21-21s21 9.4 21 21v126c0 11.6-9.4 21-21 21zM713.7 458.2h-126c-11.6 0-21-9.4-21-21s9.4-21 21-21h126c11.6 0 21 9.4 21 21s-9.4 21-21 21zM587.7 458.2c-11.6 0-21-9.4-21-21v-126c0-11.6 9.4-21 21-21s21 9.4 21 21v126c0 11.6-9.4 21-21 21z" p-id="5151"></path></svg>