<svg class="icon" style="width: 1em; height: 1em;vertical-align: middle;fill: currentColor;overflow: hidden;" viewBox="0 0 1024 1024" version="1.1" xmlns="http://www.w3.org/2000/svg" p-id="2907"><path d="M928 800H508c-14.2-55.2-64.3-96-124-96-59.6 0-109.8 40.8-124 96H96c-17.7 0-32 14.3-32 32 0 17.7 14.3 32 32 32h164c14.2 55.2 64.3 96 124 96 59.6 0 109.8-40.8 124-96h420c17.7 0 32-14.3 32-32C960 814.3 945.7 800 928 800zM384 897c-35.9 0-65-29.1-65-65s29.1-65 65-65 65 29.1 65 65S419.9 897 384 897z" fill="#000000" p-id="2908"></path><path d="M928 480H764c-14.2-55.2-64.3-96-124-96s-109.8 40.8-124 96H96c-17.7 0-32 14.3-32 32 0 17.7 14.3 32 32 32h420c14.2 55.2 64.3 96 124 96s109.8-40.8 124-96h164c17.7 0 32-14.3 32-32C960 494.3 945.7 480 928 480zM640 577c-35.9 0-65-29.1-65-65s29.1-65 65-65 65 29.1 65 65S675.9 577 640 577z" fill="#000000" p-id="2909"></path><path d="M96 224h164c14.2 55.2 64.3 96 124 96 59.6 0 109.8-40.8 124-96h420c17.7 0 32-14.3 32-32 0-17.7-14.3-32-32-32H508c-14.2-55.2-64.3-96-124-96-59.6 0-109.8 40.8-124 96H96c-17.7 0-32 14.3-32 32C64 209.7 78.3 224 96 224zM384 127c35.9 0 65 29.1 65 65s-29.1 65-65 65-65-29.1-65-65S348.1 127 384 127z" fill="#000000" p-id="2910"></path></svg>